# xmcd CD database file
#
# Track frame offsets:
#	150
#	13191
#	27139
#	40865
#	50889
#	63662
#	77650
#	91131
#	106249
#	118675
#	133029
#	143820
#	157673
#	167059
#	179416
#
# Disc length: 2558 seconds
#
# Revision: 1
# Processed by: cddbd v1.5PL3 Copyright (c) Steve Scherf et al.
# Submitted via: CDex 1.50
#
DISCID=c309fc0f
DTITLE=Josephine Baker - The Black Pearl
DYEAR=2003
DGENRE=Jazz
TTITLE0=I Wonder Where My Baby Is Tonight
TTITLE1=Pretty Little Baby
TTITLE2=That Certain Feeling
TTITLE3=My Fate Is In Your Hands
TTITLE4=Who?
TTITLE5=King For A Day
TTITLE6=Easy to Love
TTITLE7=Besame Mucho
TTITLE8=Confessin'
TTITLE9=J'ai Deux Amours
TTITLE10=You're Driving Me Crazy
TTITLE11=I've Got You Under My Skin
TTITLE12=Brazil
TTITLE13=Chiquita Madame
TTITLE14=Peg O' My Heart
EXTD=YEAR: 2003
EXTT0=
EXTT1=
EXTT2=
EXTT3=
EXTT4=
EXTT5=
EXTT6=
EXTT7=
EXTT8=
EXTT9=
EXTT10=
EXTT11=
EXTT12=
EXTT13=
EXTT14=
PLAYORDER=
